Coordinates
version=1
nRows=10
nColumns=40
inDegrees=yes

Units are S.I. units (second, meters, Newtons, ...)
Angles are in degrees.

endheader
time	pelvis_tilt	pelvis_list	pelvis_rotation	pelvis_tx	pelvis_ty	pelvis_tz	hip_flexion_r	hip_adduction_r	hip_rotation_r	knee_angle_r	knee_angle_r_beta	ankle_angle_r	subtalar_angle_r	mtp_angle_r	hip_flexion_l	hip_adduction_l	hip_rotation_l	knee_angle_l	knee_angle_l_beta	ankle_angle_l	subtalar_angle_l	mtp_angle_l	lumbar_extension	lumbar_bending	lumbar_rotation	arm_flex_r	arm_add_r	arm_rot_r	elbow_flex_r	pro_sup_r	wrist_flex_r	wrist_dev_r	arm_flex_l	arm_add_l	arm_rot_l	elbow_flex_l	pro_sup_l	wrist_flex_l	wrist_dev_l
     29.17578571	     -3.84500551	     -3.07346948	     -9.32995971	      0.83206750	      0.91584356	      0.37630653	     30.17577733	     -4.34850414	     -3.44820302	     24.67135858	     24.67135858	     -1.73999544	      0.08727064	      4.61273432	     10.84319055	     -1.44441755	     -5.30855518	     28.26823369	     28.26823369	     23.18647746	    -18.21839317	      8.67595864	    -12.08665591	      7.92790502	      3.07745943	    -28.02279698	    -10.05987901	    -15.58252957	     30.98077584	     46.78750290	      0.00000000	      0.00000000	     48.17192786	    -28.35136218	      6.38684131	     55.37625668	     47.45873929	      0.00000000	      0.00000000
     29.19657143	     -4.01077658	     -2.84978160	    -10.09627651	      0.83410533	      0.91642562	      0.38123146	     29.96676472	     -3.98704591	     -3.50311409	     24.01405154	     24.01405154	     -1.99862735	      0.47747729	      4.59233264	      9.90145005	     -1.49544650	     -6.04298172	     27.16380278	     27.16380278	     23.15768881	    -18.05558436	      8.73435855	    -11.88713288	      7.53972434	      3.15171278	    -29.54876162	     -9.82430897	    -15.46662556	     31.11372643	     46.74924166	      0.00000000	      0.00000000	     49.85826392	    -29.10113311	      5.83811074	     56.21098317	     47.53211218	      0.00000000	      0.00000000
     29.21735714	     -4.23253817	     -2.64486653	    -10.81896932	      0.83613494	      0.91660097	      0.38632894	     29.77853992	     -3.55833947	     -3.27873309	     23.68330614	     23.68330614	     -2.33990476	      0.27784262	      2.88778575	      9.06480276	     -1.59827651	     -6.82341143	     26.13133772	     26.13133772	     22.82355127	    -17.91996023	      7.80635201	    -11.68192359	      7.22905461	      3.23936233	    -31.56469584	     -9.67672990	    -14.98133106	     33.73096806	     46.54044650	      0.00000000	      0.00000000	     51.13834247	    -29.57790662	      4.48651968	     57.60205278	     47.68027462	      0.00000000	      0.00000000
     29.23814286	     -4.61493034	     -2.53352406	    -11.42646019	      0.83805141	      0.91639243	      0.39145453	     29.75350894	     -3.08073401	     -3.13812486	     23.72607910	     23.72607910	     -1.78372113	      0.17634563	      2.60747617	      8.58607787	     -1.80932198	     -7.35171263	     25.47801159	     25.47801159	     22.92237368	    -17.85062484	      7.92174282	    -11.26240106	      7.07449561	      3.16517979	    -32.21512995	     -9.60866298	    -14.96937318	     33.59305896	     46.53822995	      0.00000000	      0.00000000	     52.51615010	    -30.28972453	      4.11021269	     58.08460000	     47.72888720	      0.00000000	      0.00000000
     29.25892857	     -4.63143424	     -2.30910637	    -12.07259803	      0.84026761	      0.91650996	      0.39676482	     29.27525942	     -2.64094974	     -2.31731013	     23.77644832	     23.77644832	     -1.36480611	     -0.71919649	      0.87951674	      7.47954801	     -1.82035712	     -8.13151554	     24.36894491	     24.36894491	     22.71065243	    -17.55662735	      7.23317936	    -11.30380421	      6.68303604	      3.39911885	    -33.05013057	     -9.49251328	    -14.56938191	     34.78807268	     46.42781987	      0.00000000	      0.00000000	     53.47759484	    -30.38739157	      2.77698071	     59.81537243	     47.86932136	      0.00000000	      0.00000000
     29.27971429	     -4.80688660	     -2.12557873	    -12.57890755	      0.84233320	      0.91620128	      0.40197705	     28.98725473	     -2.28618576	     -1.85708805	     24.00455788	     24.00455788	     -0.29960911	     -0.94542127	      0.33347674	      6.75951963	     -1.89495874	     -8.68072330	     23.65084102	     23.65084102	     22.78642424	    -17.33429753	      7.25072290	    -11.13013145	      6.41917164	      3.34975423	    -33.14822024	     -9.50620904	    -14.51033701	     34.87386683	     46.41550760	      0.00000000	      0.00000000	     54.64149003	    -30.80964573	      2.37351627	     60.37228706	     47.91850661	      0.00000000	      0.00000000
     29.30050000	     -4.97369399	     -2.00428129	    -13.01621816	      0.84441639	      0.91581796	      0.40715228	     28.62797006	     -1.89377827	     -1.35535351	     24.16432188	     24.16432188	      0.81790163	     -1.20709532	     -0.18564479	      6.04504583	     -2.02752723	     -9.18082404	     22.97668774	     22.97668774	     22.83860722	    -17.09590238	      7.15996394	    -11.00863539	      6.25974033	      3.41325877	    -33.13950163	     -9.53148518	    -14.43756066	     34.97569348	     46.40207070	      0.00000000	      0.00000000	     55.58335876	    -31.03486016	      1.91569154	     61.08808711	     47.97204721	      0.00000000	      0.00000000
     29.32128571	     -5.12802458	     -1.93031523	    -13.37946505	      0.84649331	      0.91539087	      0.41226986	     28.24728598	     -1.50851294	     -0.92437502	     24.29879660	     24.29879660	      1.93970790	     -1.35234491	     -0.62541856	      5.35918641	     -2.20729855	     -9.63626746	     22.38727665	     22.38727665	     22.87741944	    -16.85500118	      6.98328145	    -10.91884855	      6.16696001	      3.45558487	    -32.98679296	     -9.60539944	    -14.36881889	     35.05661735	     46.39098726	      0.00000000	      0.00000000	     56.37049099	    -31.17676163	      1.42866346	     61.83255743	     48.02636448	      0.00000000	      0.00000000
     29.34207143	     -5.34034512	     -1.91676425	    -13.65905533	      0.84846800	      0.91490416	      0.41729738	     27.94558300	     -1.11485636	     -0.64419143	     24.42296681	     24.42296681	      2.98516525	     -1.35020462	     -0.97036847	      4.80326292	     -2.46672221	     -9.98692091	     21.92469809	     21.92469809	     22.88346637	    -16.64920984	      6.85616605	    -10.79513240	      6.20029508	      3.46275568	    -32.74436119	     -9.73737829	    -14.33203725	     35.10099304	     46.38583379	      0.00000000	      0.00000000	     57.02991028	    -31.28839194	      1.06529521	     62.40168795	     48.06737983	      0.00000000	      0.00000000
     29.36285714	     -5.66961465	     -1.89826118	    -13.79107856	      0.85040103	      0.91429538	      0.42215017	     27.74146888	     -0.76873295	     -0.48613119	     24.44902546	     24.44902546	      3.95397514	     -1.33886808	     -1.29398450	      4.53744784	     -2.74969815	    -10.12433548	     21.72809640	     21.72809640	     22.91722050	    -16.64790178	      6.86442401	    -10.46473800	      6.30210995	      3.42904646	    -32.58275509	     -9.78355860	    -14.32828835	     35.14434805	     46.38460304	      0.00000000	      0.00000000	     57.36229585	    -31.31317543	      0.98276668	     62.59303458	     48.07921074	      0.00000000	      0.00000000
